<svg width="10" height="6" viewBox="0 0 10 6" fill="none" xmlns="http://www.w3.org/2000/svg">
<path d="M9.18276 1.53052L5.04213 5.66556C4.97145 5.73625 4.88774 5.77159 4.79102 5.77159C4.69429 5.77159 4.61058 5.73625 4.5399 5.66556L0.399275 1.53052C0.32859 1.45983 0.293248 1.37613 0.293248 1.2794C0.293248 1.17895 0.32859 1.09339 0.399275 1.0227L1.32561 0.101946C1.3963 0.0312613 1.48 -0.00408089 1.57673 -0.00408089C1.67346 -0.00408089 1.75716 0.0312613 1.82785 0.101946L4.79102 3.06512L7.75419 0.101946C7.82487 0.0312613 7.90858 -0.00408089 8.0053 -0.00408089C8.10203 -0.00408089 8.18573 0.0312613 8.25642 0.101946L9.18276 1.0227C9.25344 1.09339 9.28878 1.17895 9.28878 1.2794C9.28878 1.37613 9.25344 1.45983 9.18276 1.53052Z" fill="#00328B"/>
</svg>
